<svg width="26" height="28" viewBox="0 0 26 28" fill="none" xmlns="http://www.w3.org/2000/svg">
<path fill-rule="evenodd" clip-rule="evenodd" d="M23 1.5H3C2.17157 1.5 1.5 2.17157 1.5 3V25C1.5 25.8284 2.17157 26.5 3 26.5H23C23.8284 26.5 24.5 25.8284 24.5 25V3C24.5 2.17157 23.8284 1.5 23 1.5ZM3 0C1.34315 0 0 1.34315 0 3V25C0 26.6569 1.34315 28 3 28H23C24.6569 28 26 26.6569 26 25V3C26 1.34315 24.6569 0 23 0H3Z" fill="#FAFAFA"/>
<path fill-rule="evenodd" clip-rule="evenodd" d="M5.25 9C5.25 8.58579 5.58579 8.25 6 8.25H20C20.4142 8.25 20.75 8.58579 20.75 9C20.75 9.41421 20.4142 9.75 20 9.75H6C5.58579 9.75 5.25 9.41421 5.25 9Z" fill="#FAFAFA"/>
<path fill-rule="evenodd" clip-rule="evenodd" d="M5.25 14C5.25 13.5858 5.58579 13.25 6 13.25H20C20.4142 13.25 20.75 13.5858 20.75 14C20.75 14.4142 20.4142 14.75 20 14.75H6C5.58579 14.75 5.25 14.4142 5.25 14Z" fill="#FAFAFA"/>
<path fill-rule="evenodd" clip-rule="evenodd" d="M5.25 19C5.25 18.5858 5.58579 18.25 6 18.25H20C20.4142 18.25 20.75 18.5858 20.75 19C20.75 19.4142 20.4142 19.75 20 19.75H6C5.58579 19.75 5.25 19.4142 5.25 19Z" fill="#FAFAFA"/>
</svg>
